<?xml version="1.0" standalone="no"?>
<!DOCTYPE svg PUBLIC "-//W3C//DTD SVG 20010904//EN"
 "http://www.w3.org/TR/2001/REC-SVG-20010904/DTD/svg10.dtd">
<svg version="1.0" xmlns="http://www.w3.org/2000/svg"
 width="38.000000pt" height="120.000000pt" viewBox="0 0 38.000000 120.000000"
 preserveAspectRatio="xMidYMid meet">
<metadata>
Created by potrace 1.16, written by Peter Selinger 2001-2019
</metadata>
<g transform="translate(0.000000,120.000000) scale(0.100000,-0.100000)"
fill="#777777" stroke="none">
<path d="M315 584 c-42 -21 -69 -48 -128 -128 -32 -41 -76 -84 -114 -110 l-61
-42 54 -34 c36 -23 79 -65 120 -117 70 -89 113 -128 157 -138 24 -6 27 -4 27
18 0 18 -10 31 -34 45 -42 25 -81 76 -101 131 -24 70 -24 71 60 71 73 0 75 1
75 25 0 24 -2 25 -75 25 -84 0 -84 1 -60 71 20 55 59 106 101 131 24 14 34 27
34 44 0 28 -13 30 -55 8z"/>
</g>
</svg>
